<?xml version="1.0" standalone="no"?>
<svg xmlns:xlink="http://www.w3.org/1999/xlink" id="wave" style="transform:rotate(0deg); transition: 0.3s" viewBox="0 0 1440 480" version="1.1" xmlns="http://www.w3.org/2000/svg"><defs><linearGradient id="sw-gradient-0" x1="0" x2="0" y1="1" y2="0"><stop stop-color="rgba(0, 0, 0, 1)" offset="0%"/><stop stop-color="rgba(129.96, 0, 207.614, 1)" offset="100%"/></linearGradient></defs><path style="transform:translate(0, 0px); opacity:1" fill="url(#sw-gradient-0)" d="M0,288L40,256C80,224,160,160,240,128C320,96,400,96,480,112C560,128,640,160,720,168C800,176,880,160,960,136C1040,112,1120,80,1200,96C1280,112,1360,176,1440,200C1520,224,1600,208,1680,184C1760,160,1840,128,1920,120C2000,112,2080,128,2160,128C2240,128,2320,112,2400,144C2480,176,2560,256,2640,312C2720,368,2800,400,2880,416C2960,432,3040,432,3120,432C3200,432,3280,432,3360,416C3440,400,3520,368,3600,368C3680,368,3760,400,3840,352C3920,304,4000,176,4080,160C4160,144,4240,240,4320,296C4400,352,4480,368,4560,328C4640,288,4720,192,4800,136C4880,80,4960,64,5040,56C5120,48,5200,48,5280,104C5360,160,5440,272,5520,336C5600,400,5680,416,5720,424L5760,432L5760,480L5720,480C5680,480,5600,480,5520,480C5440,480,5360,480,5280,480C5200,480,5120,480,5040,480C4960,480,4880,480,4800,480C4720,480,4640,480,4560,480C4480,480,4400,480,4320,480C4240,480,4160,480,4080,480C4000,480,3920,480,3840,480C3760,480,3680,480,3600,480C3520,480,3440,480,3360,480C3280,480,3200,480,3120,480C3040,480,2960,480,2880,480C2800,480,2720,480,2640,480C2560,480,2480,480,2400,480C2320,480,2240,480,2160,480C2080,480,2000,480,1920,480C1840,480,1760,480,1680,480C1600,480,1520,480,1440,480C1360,480,1280,480,1200,480C1120,480,1040,480,960,480C880,480,800,480,720,480C640,480,560,480,480,480C400,480,320,480,240,480C160,480,80,480,40,480L0,480Z"/></svg>